<svg width="512" height="512" viewBox="0 0 512 512" fill="none" xmlns="http://www.w3.org/2000/svg">
<circle cx="256" cy="256" r="256" fill="white"/>
<path d="M340.93 206.166H374.102L347.596 266.465M278.777 248.668H271.067H240.912C240.912 248.668 260.96 212.329 264.268 208.269C267.614 204.165 270.782 206.725 271.084 210.346C271.268 212.561 271.171 233.077 271.067 248.668C271.001 258.557 270.933 266.465 270.933 266.465M231.107 266.915C231.107 266.915 201.769 267.284 200.38 266.821C198.99 266.358 202.607 263.911 221.842 236.428C225.434 231.296 227.412 226.966 228.253 223.338L228.551 221.005C228.551 212.484 221.643 205.576 213.122 205.576C205.623 205.576 199.374 210.925 197.982 218.015M320.289 206.166L296.072 267.054Z" fill="#FE928E"/>
<path d="M91.9485 272.384C83.7263 253.888 78.603 234.408 80.3368 216.085C80.7685 211.527 82.8786 207.291 86.1157 204.055L112.824 177.346C118.291 171.88 126.317 170.794 132.806 173.792C135.389 174.985 137.729 176.825 139.567 179.293L150.452 193.763L169.735 219.396C171.293 221.468 172.041 224.037 171.838 226.621C171.635 229.205 170.495 231.625 168.632 233.428L149.09 252.34C147.926 253.466 147.183 254.958 146.985 256.566C146.786 258.174 147.145 259.801 148.001 261.177V261.178C174.01 302.993 209.285 338.269 251.101 364.278C252.477 365.133 254.104 365.492 255.712 365.294C257.32 365.095 258.812 364.352 259.938 363.188L278.849 343.647C280.652 341.784 283.073 340.644 285.657 340.441C288.241 340.238 290.81 340.986 292.882 342.544L318.513 361.825L332.985 372.712C335.453 374.549 337.292 376.888 338.485 379.471C341.484 385.96 340.398 393.987 334.932 399.454L308.223 426.163C304.867 429.513 300.44 431.574 295.716 431.986C231.35 437.654 152.987 359.292 152.987 359.292C152.987 359.292 124.484 330.789 103.102 294.043" fill="#FE928E"/>
<path d="M187.588 137.555C239.621 90.9117 319.66 92.5951 369.671 142.606C421.425 194.361 421.425 278.27 369.671 330.024C355.245 344.45 338.32 354.855 320.29 361.238M150.88 192.437C155.682 178.714 162.725 165.882 171.722 154.461Z" fill="#FE928E"/>
<path d="M393.599 133.371C447.438 194.772 445.069 288.27 386.493 346.846C372.621 360.718 356.79 371.438 339.89 379.005M133.375 172.155C140.937 155.343 151.622 139.593 165.431 125.784C223.337 67.8776 315.372 64.9 376.788 116.852" fill="#FE928E"/>
<path fill-rule="evenodd" clip-rule="evenodd" d="M169.735 219.396C171.293 221.468 172.041 224.037 171.838 226.621C171.635 229.205 170.495 231.625 168.632 233.428L149.09 252.34C147.926 253.466 147.183 254.958 146.985 256.566C146.786 258.174 147.145 259.801 148.001 261.177V261.178C174.01 302.993 209.285 338.269 251.101 364.278C252.477 365.133 254.104 365.492 255.712 365.294C257.32 365.095 258.812 364.352 259.938 363.188L278.849 343.647C280.652 341.784 283.073 340.644 285.657 340.441C288.241 340.238 290.81 340.986 292.882 342.544L318.513 361.825L320.29 361.238C338.32 354.855 355.245 344.45 369.671 330.024C421.425 278.27 421.425 194.361 369.671 142.606C319.66 92.5951 239.621 90.9117 187.588 137.555C181.229 142.826 174.361 151.022 171.722 154.461C162.725 165.882 155.682 178.714 150.88 192.437L150.452 193.763L169.735 219.396ZM240.912 248.668H271.067C271.171 233.077 271.268 212.561 271.084 210.346C270.782 206.725 267.614 204.165 264.268 208.269C260.96 212.329 240.912 248.668 240.912 248.668Z" fill="#FE928E"/>
<path d="M187.588 137.555C239.621 90.9117 319.66 92.5951 369.671 142.606C421.425 194.361 421.425 278.27 369.671 330.024C355.245 344.45 338.32 354.855 320.29 361.238L318.513 361.825L332.985 372.712C335.453 374.549 337.292 376.888 338.485 379.471L339.89 379.005C356.79 371.438 372.621 360.718 386.493 346.846C445.069 288.27 447.438 194.772 393.599 133.371C392.144 131.25 381.785 121.475 376.788 116.852C315.372 64.9 223.337 67.8776 165.431 125.784C151.622 139.593 140.937 155.343 133.375 172.155L132.806 173.792C135.389 174.985 137.729 176.825 139.567 179.293L150.452 193.763L150.88 192.437C155.682 178.714 162.725 165.882 171.722 154.461C174.361 151.022 181.229 142.826 187.588 137.555Z" fill="#FE928E"/>
<path d="M340.93 206.166H374.102L347.596 266.465M278.777 248.668H271.067M270.933 266.465C270.933 266.465 271.001 258.557 271.067 248.668M231.107 266.915C231.107 266.915 201.769 267.284 200.38 266.821C198.99 266.358 202.607 263.911 221.842 236.428C225.434 231.296 227.412 226.966 228.253 223.338L228.551 221.005C228.551 212.484 221.643 205.576 213.122 205.576C205.623 205.576 199.374 210.925 197.982 218.015M320.289 206.166L296.072 267.054M150.452 193.763L139.567 179.293C137.729 176.825 135.389 174.985 132.806 173.792M150.452 193.763L169.735 219.396C171.293 221.468 172.041 224.037 171.838 226.621C171.635 229.205 170.495 231.625 168.632 233.428L149.09 252.34C147.926 253.466 147.183 254.958 146.985 256.566C146.786 258.174 147.145 259.801 148.001 261.177V261.178C174.01 302.993 209.285 338.269 251.101 364.278C252.477 365.133 254.104 365.492 255.712 365.294C257.32 365.095 258.812 364.352 259.938 363.188L278.849 343.647C280.652 341.784 283.073 340.644 285.657 340.441C288.241 340.238 290.81 340.986 292.882 342.544L318.513 361.825M150.452 193.763L150.88 192.437C155.682 178.714 162.725 165.882 171.722 154.461C174.361 151.022 181.229 142.826 187.588 137.555C239.621 90.9117 319.66 92.5951 369.671 142.606C421.425 194.361 421.425 278.27 369.671 330.024C355.245 344.45 338.32 354.855 320.29 361.238L318.513 361.825M132.806 173.792C126.317 170.794 118.291 171.88 112.824 177.346L86.1157 204.055C82.8786 207.291 80.7685 211.527 80.3368 216.085C78.603 234.408 83.7263 253.888 91.9485 272.384L103.102 294.043C124.484 330.789 152.987 359.292 152.987 359.292C152.987 359.292 231.35 437.654 295.716 431.986C300.44 431.574 304.867 429.513 308.223 426.163L334.932 399.454C340.398 393.987 341.484 385.96 338.485 379.471M132.806 173.792L133.375 172.155C140.937 155.343 151.622 139.593 165.431 125.784C223.337 67.8776 315.372 64.9 376.788 116.852C381.785 121.475 392.144 131.25 393.599 133.371C447.438 194.772 445.069 288.27 386.493 346.846C372.621 360.718 356.79 371.438 339.89 379.005L338.485 379.471M318.513 361.825L332.985 372.712C335.453 374.549 337.292 376.888 338.485 379.471M271.067 248.668H240.912C240.912 248.668 260.96 212.329 264.268 208.269C267.614 204.165 270.782 206.725 271.084 210.346C271.268 212.561 271.171 233.077 271.067 248.668Z" stroke="white" stroke-width="6" stroke-miterlimit="10" stroke-linecap="round" stroke-linejoin="round"/>
</svg>
