<svg width="512" height="512" viewBox="0 0 512 512" fill="none" xmlns="http://www.w3.org/2000/svg">
<circle cx="256" cy="256" r="256" fill="white"/>
<path d="M217.215 386.309V317.636C217.215 313.067 211.43 310.807 208.325 314.154C208.075 314.424 188.53 335.253 164.363 344.475C168.572 328.845 175.124 317.097 181.5 305.694C188.14 293.819 195.006 281.54 198.545 265.666C202.812 246.526 200.85 225.737 192.715 203.877C186.957 188.406 178.076 172.203 165.563 154.345C161.339 148.317 162.726 145.262 163.182 144.258C165.77 138.56 177.452 130.838 218.413 126.415C238.17 124.282 242.001 110.215 242.001 93.1C242.001 90.7592 270.032 90.9267 270.032 93.1C270.032 110.72 274.047 124.245 294.247 126.506C300.961 127.256 313.458 128.652 324.808 131.671C340.7 135.898 345.981 140.957 347.612 144.457C348.171 145.655 349.871 149.304 345.044 156.551C324.341 187.634 304.4 224.906 313.486 265.666C317.562 283.948 327.464 299.486 336.083 315.831C326.236 339.314 316.41 362.807 306.607 386.31L217.215 386.309Z" fill="#FE928E"/>
<path d="M95.4129 285.168V302.061C95.4129 308.689 105.668 308.689 105.668 302.061V268.864C108.854 265.325 112.52 262.111 116.664 259.224V267.897C116.664 274.524 126.919 274.524 126.919 267.897V253.218C130.898 251.264 135.196 249.531 139.802 248.019V277.494C139.802 284.121 150.057 284.121 150.057 277.494V245.136C154.055 244.187 158.251 243.381 162.636 242.711V254.244C162.636 260.871 172.891 260.871 172.891 254.244V241.436C178.722 240.866 184.492 240.718 190.341 240.589C191.593 264.03 182.032 283.646 170.956 303.543C134.852 306.986 111.86 321.673 103.268 336.017C95.7739 329.856 91.9446 322.718 91.9446 317.636C91.9446 317.61 91.9412 317.584 91.9405 317.558C91.9391 317.468 91.933 317.378 91.9268 317.288C91.9207 317.197 91.9145 317.107 91.9036 317.018C91.9002 316.992 91.9002 316.966 91.8968 316.94C90.7085 308.266 90.7249 296.756 95.4129 285.168Z" fill="#FE928E"/>
<path d="M91.9446 390.522V339.484C95.2441 342.944 99.0563 345.953 103.123 348.465V362.709C103.123 369.336 113.378 369.336 113.378 362.709V353.597C117.443 355.214 121.75 356.476 126.226 357.382V388.239C126.226 394.866 136.481 394.866 136.481 388.239V358.799C140.755 359.117 145.062 359.138 149.329 358.683V369.941C149.329 376.568 159.584 376.568 159.584 369.941V356.783C164.168 355.58 168.621 353.955 172.888 352.059V415.028C163.637 418.874 153.341 421.673 142.932 421.673C109.456 421.673 91.9446 401.393 91.9446 390.522Z" fill="#FE928E"/>
<path d="M206.96 394.32C203.422 397.238 194.645 404.07 183.143 410.176V346.833C192.914 341.222 201.18 334.704 206.96 329.624V394.32Z" fill="#FE928E"/>
<path d="M320.508 379.619C347.224 315.624 379.431 238.876 382.476 233.095C386.112 226.193 395.099 223.413 402.002 227.043C408.838 230.636 411.693 239.646 408.061 246.541C407.605 247.406 406.146 249.758 403.885 253.297L396.16 248.859L398.136 245.246C401.315 239.431 392.317 234.513 389.137 240.329L380.432 256.247C377.332 261.919 386.288 266.913 389.431 261.165L391.24 257.857L398.318 261.923C381.859 287.253 347.954 338.368 320.508 379.619Z" fill="#FE928E"/>
<path fill-rule="evenodd" clip-rule="evenodd" d="M424.133 394.48C418.693 388.104 410.676 384.504 402.346 384.261C388.701 383.173 380.698 367.295 388.112 355.686L423.913 299.624C433.071 285.286 427.416 266.384 412.773 258.404C415.104 254.746 416.627 252.281 417.134 251.319C423.409 239.406 418.695 224.238 406.775 217.971C394.721 211.631 379.748 216.274 373.403 228.32C372.987 229.109 372.105 231.036 370.838 233.903L360.548 228.034C353.552 224.077 350.446 215.396 354.559 208.124C357.821 202.354 348.896 197.309 345.631 203.078C338.916 214.954 343.532 230.608 355.537 236.979L366.725 243.36C360.672 257.418 351.299 279.606 341.169 303.716C334 290.828 326.736 277.972 323.496 263.438C315.249 226.44 334.076 191.517 353.581 162.233C358.902 154.244 360.021 146.807 356.908 140.127C349.526 124.291 320.152 119.086 295.386 116.319C280.91 114.702 280.287 105.192 280.287 93.1007C280.287 75.5979 231.746 75.6683 231.746 93.1007C231.746 104.702 231.549 114.683 217.312 116.224C191.529 119.008 161.015 124.229 153.844 140.023C151.9 144.304 150.898 151.285 157.164 160.227C169.169 177.361 177.654 192.808 183.103 207.452C186.014 215.274 188.052 222.918 189.241 230.36L180.55 230.551C180.483 230.552 180.416 230.555 180.35 230.559C140.807 232.971 112.42 244.356 95.977 264.401C84.0994 278.878 79.0347 297.884 81.6894 317.953V390.522C81.6894 399.855 87.9444 410.177 98.4211 418.131C110.135 427.025 125.943 431.924 142.932 431.924C180.074 431.924 214.083 401.787 215.513 400.505C216.049 400.024 216.477 399.436 216.77 398.779C217.064 398.122 217.215 397.41 217.215 396.69V396.561H239.545V426.379C239.545 433.007 249.8 433.007 249.8 426.379V396.561H262.231V426.379C262.231 433.007 272.486 433.007 272.486 426.379V396.561H302.33C295.826 412.16 291.367 422.873 290.643 424.615C288.356 430.11 296.364 434.337 299.643 429.428C300.87 427.589 309.488 414.674 321.548 396.561H348.283C356.131 396.561 362.516 390.153 362.516 382.276C362.516 367.562 360.934 354.422 357.687 342.192C376.762 313.436 395.937 284.414 407.212 267.033C416.735 272.685 421.846 283.807 415.268 294.108L379.467 350.169C367.929 368.236 380.249 392.783 401.529 394.48C413.374 394.88 420.705 403.736 420.705 415.096V426.583C420.705 433.21 430.961 433.21 430.961 426.583V415.291C431.514 407.678 429.093 400.295 424.133 394.48ZM95.4129 302.061V285.168C90.7249 296.756 90.7085 308.266 91.8968 316.94C91.9002 316.966 91.9002 316.992 91.9036 317.018C91.9145 317.107 91.9207 317.197 91.9268 317.288C91.933 317.378 91.9391 317.468 91.9405 317.558C91.9412 317.584 91.9446 317.61 91.9446 317.636C91.9446 322.718 95.7739 329.856 103.268 336.017C111.86 321.673 134.852 306.986 170.956 303.543C182.032 283.646 191.593 264.03 190.341 240.589C184.492 240.718 178.722 240.866 172.891 241.436V254.244C172.891 260.871 162.636 260.871 162.636 254.244V242.711C158.251 243.381 154.055 244.187 150.057 245.136V277.494C150.057 284.121 139.802 284.121 139.802 277.494V248.019C135.196 249.531 130.898 251.264 126.919 253.218V267.897C126.919 274.524 116.664 274.524 116.664 267.897V259.224C112.52 262.111 108.854 265.325 105.668 268.864V302.061C105.668 308.689 95.4129 308.689 95.4129 302.061ZM111.819 341.651C119.839 345.866 130.234 348.787 142.932 348.787C146.305 348.787 149.67 348.422 152.994 347.774C155.886 334.573 160.254 324.052 165.051 314.563C147.97 317.038 136.193 322.058 128.996 326.138C120.919 330.717 114.878 336.212 111.819 341.651ZM91.9446 339.484V390.522C91.9446 401.393 109.456 421.673 142.932 421.673C153.341 421.673 163.637 418.874 172.888 415.028V352.059C168.621 353.955 164.168 355.58 159.584 356.783V369.941C159.584 376.568 149.329 376.568 149.329 369.941V358.683C145.062 359.138 140.755 359.117 136.481 358.799V388.239C136.481 394.866 126.226 394.866 126.226 388.239V357.382C121.75 356.476 117.443 355.214 113.378 353.597V362.709C113.378 369.336 103.123 369.336 103.123 362.709V348.465C99.0563 345.953 95.2441 342.944 91.9446 339.484ZM183.143 410.176C194.645 404.07 203.422 397.238 206.96 394.32V329.624C201.18 334.704 192.914 341.222 183.143 346.833V410.176ZM217.215 317.636V386.309L306.607 386.31C316.41 362.807 326.236 339.314 336.083 315.831C327.464 299.486 317.562 283.948 313.486 265.666C304.4 224.906 324.341 187.634 345.044 156.551C349.871 149.304 348.171 145.655 347.612 144.457C345.981 140.957 340.7 135.898 324.808 131.671C313.458 128.652 300.961 127.256 294.247 126.506C274.047 124.245 270.032 110.72 270.032 93.1C270.032 90.9267 242.001 90.7592 242.001 93.1C242.001 110.215 238.17 124.282 218.413 126.415C177.452 130.838 165.77 138.56 163.182 144.258C162.726 145.262 161.339 148.317 165.563 154.345C178.076 172.203 186.957 188.406 192.715 203.877C200.85 225.737 202.812 246.526 198.545 265.666C195.006 281.54 188.14 293.819 181.5 305.694C175.124 317.097 168.572 328.845 164.363 344.475C188.53 335.253 208.075 314.424 208.325 314.154C211.43 310.807 217.215 313.067 217.215 317.636ZM348.284 386.309C350.477 386.309 352.261 384.5 352.261 382.276C352.261 372.107 351.464 362.77 349.84 354.016C342.327 365.332 335.005 376.345 328.374 386.309H348.284ZM382.476 233.095C379.431 238.876 347.224 315.624 320.508 379.619C347.954 338.368 381.859 287.253 398.318 261.923L391.24 257.857L389.431 261.165C386.288 266.913 377.332 261.919 380.432 256.247L389.137 240.329C392.317 234.513 401.315 239.431 398.136 245.246L396.16 248.859L403.885 253.297C406.146 249.758 407.605 247.406 408.061 246.541C411.693 239.646 408.838 230.636 402.002 227.043C395.099 223.413 386.112 226.193 382.476 233.095Z" fill="#FE928E"/>
<path d="M352.261 382.276C352.261 384.5 350.477 386.309 348.284 386.309H328.374C335.005 376.345 342.327 365.332 349.84 354.016C351.464 362.77 352.261 372.107 352.261 382.276Z" fill="#FE928E"/>
<path d="M217.215 386.309V317.636C217.215 313.067 211.43 310.807 208.325 314.154C208.075 314.424 188.53 335.253 164.363 344.475C168.572 328.845 175.124 317.097 181.5 305.694C188.14 293.819 195.006 281.54 198.545 265.666C202.812 246.526 200.85 225.737 192.715 203.877C186.957 188.406 178.076 172.203 165.563 154.345C161.339 148.317 162.726 145.262 163.182 144.258C165.77 138.56 177.452 130.838 218.413 126.415C238.17 124.282 242.001 110.215 242.001 93.1C242.001 90.7592 270.032 90.9267 270.032 93.1C270.032 110.72 274.047 124.245 294.247 126.506C300.961 127.256 313.458 128.652 324.808 131.671C340.7 135.898 345.981 140.957 347.612 144.457C348.171 145.655 349.871 149.304 345.044 156.551C324.341 187.634 304.4 224.906 313.486 265.666C317.562 283.948 327.464 299.486 336.083 315.831C326.236 339.314 316.41 362.807 306.607 386.31L217.215 386.309Z" stroke="white" stroke-width="6"/>
<path d="M95.4129 285.168V302.061C95.4129 308.689 105.668 308.689 105.668 302.061V268.864C108.854 265.325 112.52 262.111 116.664 259.224V267.897C116.664 274.524 126.919 274.524 126.919 267.897V253.218C130.898 251.264 135.196 249.531 139.802 248.019V277.494C139.802 284.121 150.057 284.121 150.057 277.494V245.136C154.055 244.187 158.251 243.381 162.636 242.711V254.244C162.636 260.871 172.891 260.871 172.891 254.244V241.436C178.722 240.866 184.492 240.718 190.341 240.589C191.593 264.03 182.032 283.646 170.956 303.543C134.852 306.986 111.86 321.673 103.268 336.017C95.7739 329.856 91.9446 322.718 91.9446 317.636C91.9446 317.61 91.9412 317.584 91.9405 317.558C91.9391 317.468 91.933 317.378 91.9268 317.288C91.9207 317.197 91.9145 317.107 91.9036 317.018C91.9002 316.992 91.9002 316.966 91.8968 316.94C90.7085 308.266 90.7249 296.756 95.4129 285.168Z" stroke="white" stroke-width="6"/>
<path d="M91.9446 390.522V339.484C95.2441 342.944 99.0563 345.953 103.123 348.465V362.709C103.123 369.336 113.378 369.336 113.378 362.709V353.597C117.443 355.214 121.75 356.476 126.226 357.382V388.239C126.226 394.866 136.481 394.866 136.481 388.239V358.799C140.755 359.117 145.062 359.138 149.329 358.683V369.941C149.329 376.568 159.584 376.568 159.584 369.941V356.783C164.168 355.58 168.621 353.955 172.888 352.059V415.028C163.637 418.874 153.341 421.673 142.932 421.673C109.456 421.673 91.9446 401.393 91.9446 390.522Z" stroke="white" stroke-width="6"/>
<path d="M206.96 394.32C203.422 397.238 194.645 404.07 183.143 410.176V346.833C192.914 341.222 201.18 334.704 206.96 329.624V394.32Z" stroke="white" stroke-width="6"/>
<path d="M320.508 379.619C347.224 315.624 379.431 238.876 382.476 233.095C386.112 226.193 395.099 223.413 402.002 227.043C408.838 230.636 411.693 239.646 408.061 246.541C407.605 247.406 406.146 249.758 403.885 253.297L396.16 248.859L398.136 245.246C401.315 239.431 392.317 234.513 389.137 240.329L380.432 256.247C377.332 261.919 386.288 266.913 389.431 261.165L391.24 257.857L398.318 261.923C381.859 287.253 347.954 338.368 320.508 379.619Z" stroke="white" stroke-width="6"/>
<path fill-rule="evenodd" clip-rule="evenodd" d="M424.133 394.48C418.693 388.104 410.676 384.504 402.346 384.261C388.701 383.173 380.698 367.295 388.112 355.686L423.913 299.624C433.071 285.286 427.416 266.384 412.773 258.404C415.104 254.746 416.627 252.281 417.134 251.319C423.409 239.406 418.695 224.238 406.775 217.971C394.721 211.631 379.748 216.274 373.403 228.32C372.987 229.109 372.105 231.036 370.838 233.903L360.548 228.034C353.552 224.077 350.446 215.396 354.559 208.124C357.821 202.354 348.896 197.309 345.631 203.078C338.916 214.954 343.532 230.608 355.537 236.979L366.725 243.36C360.672 257.418 351.299 279.606 341.169 303.716C334 290.828 326.736 277.972 323.496 263.438C315.249 226.44 334.076 191.517 353.581 162.233C358.902 154.244 360.021 146.807 356.908 140.127C349.526 124.291 320.152 119.086 295.386 116.319C280.91 114.702 280.287 105.192 280.287 93.1007C280.287 75.5979 231.746 75.6683 231.746 93.1007C231.746 104.702 231.549 114.683 217.312 116.224C191.529 119.008 161.015 124.229 153.844 140.023C151.9 144.304 150.898 151.285 157.164 160.227C169.169 177.361 177.654 192.808 183.103 207.452C186.014 215.274 188.052 222.918 189.241 230.36L180.55 230.551C180.483 230.552 180.416 230.555 180.35 230.559C140.807 232.971 112.42 244.356 95.977 264.401C84.0994 278.878 79.0347 297.884 81.6894 317.953V390.522C81.6894 399.855 87.9444 410.177 98.4211 418.131C110.135 427.025 125.943 431.924 142.932 431.924C180.074 431.924 214.083 401.787 215.513 400.505C216.049 400.024 216.477 399.436 216.77 398.779C217.064 398.122 217.215 397.41 217.215 396.69V396.561H239.545V426.379C239.545 433.007 249.8 433.007 249.8 426.379V396.561H262.231V426.379C262.231 433.007 272.486 433.007 272.486 426.379V396.561H302.33C295.826 412.16 291.367 422.873 290.643 424.615C288.356 430.11 296.364 434.337 299.643 429.428C300.87 427.589 309.488 414.674 321.548 396.561H348.283C356.131 396.561 362.516 390.153 362.516 382.276C362.516 367.562 360.934 354.422 357.687 342.192C376.762 313.436 395.937 284.414 407.212 267.033C416.735 272.685 421.846 283.807 415.268 294.108L379.467 350.169C367.929 368.236 380.249 392.783 401.529 394.48C413.374 394.88 420.705 403.736 420.705 415.096V426.583C420.705 433.21 430.961 433.21 430.961 426.583V415.291C431.514 407.678 429.093 400.295 424.133 394.48ZM95.4129 302.061V285.168C90.7249 296.756 90.7085 308.266 91.8968 316.94C91.9002 316.966 91.9002 316.992 91.9036 317.018C91.9145 317.107 91.9207 317.197 91.9268 317.288C91.933 317.378 91.9391 317.468 91.9405 317.558C91.9412 317.584 91.9446 317.61 91.9446 317.636C91.9446 322.718 95.7739 329.856 103.268 336.017C111.86 321.673 134.852 306.986 170.956 303.543C182.032 283.646 191.593 264.03 190.341 240.589C184.492 240.718 178.722 240.866 172.891 241.436V254.244C172.891 260.871 162.636 260.871 162.636 254.244V242.711C158.251 243.381 154.055 244.187 150.057 245.136V277.494C150.057 284.121 139.802 284.121 139.802 277.494V248.019C135.196 249.531 130.898 251.264 126.919 253.218V267.897C126.919 274.524 116.664 274.524 116.664 267.897V259.224C112.52 262.111 108.854 265.325 105.668 268.864V302.061C105.668 308.689 95.4129 308.689 95.4129 302.061ZM111.819 341.651C119.839 345.866 130.234 348.787 142.932 348.787C146.305 348.787 149.67 348.422 152.994 347.774C155.886 334.573 160.254 324.052 165.051 314.563C147.97 317.038 136.193 322.058 128.996 326.138C120.919 330.717 114.878 336.212 111.819 341.651ZM91.9446 339.484V390.522C91.9446 401.393 109.456 421.673 142.932 421.673C153.341 421.673 163.637 418.874 172.888 415.028V352.059C168.621 353.955 164.168 355.58 159.584 356.783V369.941C159.584 376.568 149.329 376.568 149.329 369.941V358.683C145.062 359.138 140.755 359.117 136.481 358.799V388.239C136.481 394.866 126.226 394.866 126.226 388.239V357.382C121.75 356.476 117.443 355.214 113.378 353.597V362.709C113.378 369.336 103.123 369.336 103.123 362.709V348.465C99.0563 345.953 95.2441 342.944 91.9446 339.484ZM183.143 410.176C194.645 404.07 203.422 397.238 206.96 394.32V329.624C201.18 334.704 192.914 341.222 183.143 346.833V410.176ZM217.215 317.636V386.309L306.607 386.31C316.41 362.807 326.236 339.314 336.083 315.831C327.464 299.486 317.562 283.948 313.486 265.666C304.4 224.906 324.341 187.634 345.044 156.551C349.871 149.304 348.171 145.655 347.612 144.457C345.981 140.957 340.7 135.898 324.808 131.671C313.458 128.652 300.961 127.256 294.247 126.506C274.047 124.245 270.032 110.72 270.032 93.1C270.032 90.9267 242.001 90.7592 242.001 93.1C242.001 110.215 238.17 124.282 218.413 126.415C177.452 130.838 165.77 138.56 163.182 144.258C162.726 145.262 161.339 148.317 165.563 154.345C178.076 172.203 186.957 188.406 192.715 203.877C200.85 225.737 202.812 246.526 198.545 265.666C195.006 281.54 188.14 293.819 181.5 305.694C175.124 317.097 168.572 328.845 164.363 344.475C188.53 335.253 208.075 314.424 208.325 314.154C211.43 310.807 217.215 313.067 217.215 317.636ZM348.284 386.309C350.477 386.309 352.261 384.5 352.261 382.276C352.261 372.107 351.464 362.77 349.84 354.016C342.327 365.332 335.005 376.345 328.374 386.309H348.284ZM382.476 233.095C379.431 238.876 347.224 315.624 320.508 379.619C347.954 338.368 381.859 287.253 398.318 261.923L391.24 257.857L389.431 261.165C386.288 266.913 377.332 261.919 380.432 256.247L389.137 240.329C392.317 234.513 401.315 239.431 398.136 245.246L396.16 248.859L403.885 253.297C406.146 249.758 407.605 247.406 408.061 246.541C411.693 239.646 408.838 230.636 402.002 227.043C395.099 223.413 386.112 226.193 382.476 233.095Z" stroke="white" stroke-width="6"/>
<path d="M352.261 382.276C352.261 384.5 350.477 386.309 348.284 386.309H328.374C335.005 376.345 342.327 365.332 349.84 354.016C351.464 362.77 352.261 372.107 352.261 382.276Z" stroke="white" stroke-width="6"/>
</svg>
