<svg width="304" height="343" viewBox="0 0 304 343" fill="none" xmlns="http://www.w3.org/2000/svg">
<path d="M39.2658 48.2698C39.2658 34.6623 39.6767 19.9384 39.9055 12.8625H48.209V23.7545C48.209 37.5336 53.5715 50.4862 63.311 60.2257C73.0958 70.0105 86.0866 75.35 99.961 75.327C128.297 75.2317 151.353 51.7854 151.353 23.0641V12.8625H159.657C160.052 25.1931 160.949 58.6661 159.518 72.1138C158.496 81.6935 154.538 99.4695 150.706 116.659C149.347 122.759 147.953 129.026 146.694 134.897H120.481C120.338 134.891 120.195 134.891 120.052 134.897H81.039C80.8817 134.889 80.7242 134.889 80.5669 134.897H52.8568C51.7359 129.684 50.5051 124.15 49.2968 118.718L49.0355 117.543C45.1234 99.9935 40.4889 61.2083 39.454 51.4793C39.3251 50.2908 39.2748 48.8444 39.2658 48.2698Z" fill="#FE928E"/>
<path d="M164.222 230.634C168.257 229.751 172.41 231.851 174.106 235.632C175.142 237.945 176.208 239.816 177.269 241.328L174.087 225.967C165.833 190.429 155.709 159.188 147.839 144.759H126.329C128.04 153.799 129.968 167.214 131.89 183.523C131.965 184.167 131.914 184.819 131.737 185.442C131.561 186.065 131.264 186.648 130.863 187.157C130.461 187.665 129.964 188.089 129.398 188.406C128.833 188.722 128.211 188.923 127.567 188.999C126.268 189.151 124.962 188.781 123.936 187.97C122.91 187.16 122.247 185.975 122.094 184.676C120.055 167.353 118.026 153.441 116.285 144.76H85.0491C83.2995 153.415 81.2599 167.384 79.2236 184.676C79.0822 185.875 78.5061 186.981 77.6044 187.783C76.7026 188.586 75.5378 189.03 74.3306 189.032C73.6339 189.033 72.945 188.886 72.3092 188.601C71.6734 188.316 71.1052 187.899 70.642 187.379C70.1788 186.858 69.831 186.246 69.6217 185.581C69.4124 184.917 69.3463 184.215 69.4276 183.523C71.3462 167.235 73.2851 153.774 75.0012 144.759H52.4689C39.7451 167.867 21.3281 233.77 13.5308 296.777C28.0983 296.288 43.9905 299.286 64.0572 306.223C70.7442 308.533 77.4788 311.108 83.995 313.598L84.0444 313.617L84.0685 313.626C100.496 319.903 117.48 326.393 134.317 328.819C148.987 330.93 170.138 330.478 188.909 316.879C188.28 309.659 187.508 302.453 186.595 295.264H120.576C118.162 295.264 115.91 294.313 114.235 292.59C112.558 290.861 111.674 288.578 111.744 286.156C111.916 280.318 113.31 268.843 120.717 257.607C129.63 244.09 144.266 235.013 164.222 230.634Z" fill="#FE928E"/>
<path d="M279.5 228.441C275.989 235.742 272.362 243.291 272.362 252.865V285.401H266.167V252.865C266.167 237.107 265.436 227.794 261.573 223.723C261.112 223.237 260.557 222.85 259.942 222.586C259.327 222.322 258.664 222.186 257.995 222.187C246.576 222.187 231.038 237.756 226.548 242.528C214.187 255.665 204.44 271.234 199.809 285.244C199.778 285.334 199.671 285.401 199.553 285.401H191.038C190.971 285.399 190.903 285.399 190.836 285.401H121.644C122.259 273.933 128.042 249.034 165.47 240.46C170.776 251.82 178.282 257.578 187.782 257.578C203.575 257.578 219.907 239.315 236.326 203.297C247.355 179.108 256.295 170.537 270.492 170.537C276.965 170.537 285.93 183.22 285.93 207.036C285.93 215.06 282.807 221.56 279.5 228.441Z" fill="#FE928E"/>
<path d="M198.508 58.8093H217.344L213.404 86.1032H186.913L198.508 58.8093Z" fill="#FE928E"/>
<path d="M227.309 58.8093H247.36L251.297 86.1032H223.369L227.309 58.8093Z" fill="#FE928E"/>
<path d="M287.755 86.1032H261.263L257.324 58.8093H276.158L287.755 86.1032Z" fill="#FE928E"/>
<path d="M250.552 115.973C247.943 115.187 245.192 116.659 244.405 119.266L237.333 142.627L223.215 95.9656H251.454L250.29 99.8106C249.912 101.062 250.047 102.413 250.664 103.566C251.282 104.719 252.332 105.579 253.583 105.958C256.19 106.745 258.943 105.272 259.732 102.665L261.463 96.9433C261.558 96.6329 261.64 96.3042 261.712 95.9649H287.467L248.534 139.668L253.845 122.121C254.631 119.514 253.156 116.761 250.552 115.973Z" fill="#FE928E"/>
<path d="M213.206 96.9439L226.135 139.668L187.202 95.9656H212.957C213.03 96.3049 213.111 96.631 213.206 96.9439Z" fill="#FE928E"/>
<path fill-rule="evenodd" clip-rule="evenodd" d="M299.808 89.2545C299.775 89.1697 299.739 89.0849 299.703 89.0027L285.057 54.5329C284.355 52.8751 283.18 51.4611 281.678 50.4676C280.177 49.4741 278.416 48.9451 276.615 48.9469H198.053C196.252 48.9451 194.49 49.4743 192.988 50.4683C191.486 51.4623 190.311 52.877 189.608 54.5356L174.965 89.0027C174.927 89.0846 174.894 89.1691 174.861 89.2536L174.86 89.2545C173.561 92.473 174.203 96.1996 176.514 98.7961L230.483 159.375C231.338 160.334 232.384 161.103 233.555 161.632C234.725 162.161 235.994 162.439 237.279 162.447H237.386C238.671 162.439 239.94 162.161 241.11 161.632C242.281 161.103 243.327 160.334 244.182 159.375L298.151 98.7961C300.465 96.199 301.107 92.4703 299.808 89.2545ZM198.508 58.8093L186.913 86.1032H213.404L217.344 58.8093H198.508ZM226.135 139.668L213.206 96.9439C213.111 96.631 213.03 96.3049 212.957 95.9656H187.202L226.135 139.668ZM244.405 119.266C245.192 116.659 247.943 115.187 250.552 115.973C253.156 116.761 254.631 119.514 253.845 122.121L248.534 139.668L287.467 95.9649H261.712C261.64 96.3042 261.558 96.6329 261.463 96.9433L259.732 102.665C258.943 105.272 256.19 106.745 253.583 105.958C252.332 105.579 251.282 104.719 250.664 103.566C250.047 102.413 249.912 101.062 250.29 99.8106L251.454 95.9656H223.215L237.333 142.627L244.405 119.266ZM261.263 86.1032H287.755L276.158 58.8093H257.324L261.263 86.1032ZM247.36 58.8093H227.309L223.369 86.1032H251.297L247.36 58.8093Z" fill="#FE928E"/>
<path fill-rule="evenodd" clip-rule="evenodd" d="M270.492 160.676C249.268 160.676 237.898 176.077 227.352 199.205C213.298 230.035 198.874 247.716 187.782 247.716C186.131 247.716 186.43 255.772 177.269 241.328C176.208 239.816 175.142 237.945 174.106 235.632C172.41 231.851 168.257 229.751 164.222 230.634C144.266 235.013 129.63 244.09 120.717 257.607C113.31 268.843 111.916 280.318 111.744 286.156C111.674 288.578 112.558 290.861 114.235 292.59C115.91 294.313 118.162 295.264 120.576 295.264H186.595C187.508 302.453 188.28 309.659 188.909 316.879C170.138 330.478 148.987 330.93 134.317 328.819C117.48 326.393 100.496 319.903 84.0685 313.626L84.0444 313.617L83.995 313.598C77.4788 311.108 70.7442 308.533 64.0572 306.223C43.9905 299.286 28.0983 296.288 13.5308 296.777C21.3281 233.77 39.7451 167.867 52.4689 144.759H75.0012C73.2851 153.774 71.3462 167.235 69.4276 183.523C69.3463 184.215 69.4124 184.917 69.6217 185.581C69.831 186.246 70.1788 186.858 70.642 187.379C71.1052 187.899 71.6734 188.316 72.3092 188.601C72.945 188.886 73.6339 189.033 74.3306 189.032C75.5378 189.03 76.7026 188.586 77.6044 187.783C78.5061 186.981 79.0822 185.875 79.2236 184.676C81.2599 167.384 83.2995 153.415 85.0491 144.76H116.285C118.026 153.441 120.055 167.353 122.094 184.676C122.247 185.975 122.91 187.16 123.936 187.97C124.962 188.781 126.268 189.151 127.567 188.999C128.211 188.923 128.833 188.722 129.398 188.406C129.964 188.089 130.461 187.665 130.863 187.157C131.264 186.648 131.561 186.065 131.737 185.442C131.914 184.819 131.965 184.167 131.89 183.523C129.968 167.214 128.04 153.799 126.329 144.759H147.839C155.709 159.188 165.833 190.429 174.087 225.967L177.269 241.328C186.43 255.772 186.131 247.716 187.782 247.716L183.693 223.738C175.087 186.674 164.313 153.88 155.906 138.981C157.231 132.734 158.749 125.914 160.226 119.278L160.331 118.804C164.222 101.347 168.244 83.2939 169.323 73.1592C170.89 58.438 169.824 21.8024 169.459 10.9262C169.396 8.79693 168.503 6.77669 166.972 5.29608C165.44 3.81546 163.391 2.99158 161.261 3.00006H149.691C145.168 3.00006 141.49 6.68071 141.49 11.2036V23.0641C141.49 46.3664 122.844 65.387 99.9242 65.4646H99.7802C88.6337 65.4646 78.1625 61.1291 70.2831 53.2523C62.4082 45.3755 58.0707 34.9017 58.0707 23.7545V11.203C58.0707 6.68137 54.3901 3.00006 49.8666 3.00006H38.2993C36.1693 2.99192 34.1205 3.81595 32.5893 5.29654C31.0581 6.77712 30.1657 8.79716 30.1023 10.9262C29.8919 17.1921 29.4034 33.3782 29.4034 48.2698C29.4253 49.1466 29.5044 51.2246 29.6456 52.5221C30.7423 62.8086 35.4359 101.868 39.4071 119.687C40.9325 126.529 42.5039 133.584 43.8551 139.959C37.1723 152.128 29.1765 174.885 21.7416 202.983C13.2402 235.106 6.59624 270.107 3.03131 301.538C2.9484 302.271 3.03067 303.012 3.27205 303.709C3.51343 304.405 3.90779 305.039 4.42616 305.563C4.94453 306.087 5.57373 306.488 6.2675 306.737C6.96128 306.986 7.70201 307.076 8.43525 307.001C23.2026 305.489 39.3605 308.123 60.8342 315.546C67.3782 317.805 74.0447 320.353 80.4915 322.818L80.5229 322.83C97.4612 329.304 114.977 335.998 132.909 338.581C137.815 339.288 142.628 339.637 147.326 339.637C166.146 339.637 183.146 334.009 197.095 323.053C197.735 322.55 198.241 321.896 198.568 321.15C198.894 320.404 199.03 319.588 198.964 318.776C198.324 310.922 197.514 303.083 196.535 295.264H199.553C203.936 295.264 207.802 292.483 209.173 288.339C213.368 275.647 222.318 261.413 233.729 249.288C242.356 240.119 250.308 234.492 255.141 232.686C255.915 236.177 256.305 242.937 256.305 252.865V286.388C256.305 291.28 260.286 295.264 265.181 295.264H273.349C278.241 295.264 282.225 291.28 282.225 286.388V252.865C282.225 245.538 285.216 239.308 288.389 232.714C292.031 225.138 295.793 217.304 295.793 207.036C295.793 180.174 285.153 160.676 270.492 160.676ZM39.9055 12.8625C39.6767 19.9384 39.2658 34.6623 39.2658 48.2698C39.2748 48.8444 39.3251 50.2908 39.454 51.4793C40.4889 61.2083 45.1234 99.9935 49.0355 117.543L49.2968 118.718C50.5051 124.15 51.7359 129.684 52.8568 134.897H80.5669C80.7242 134.889 80.8817 134.889 81.039 134.897H120.052C120.195 134.891 120.338 134.891 120.481 134.897H146.694C147.953 129.026 149.347 122.759 150.706 116.659C154.538 99.4695 158.496 81.6935 159.518 72.1138C160.949 58.6661 160.052 25.1931 159.657 12.8625H151.353V23.0641C151.353 51.7854 128.297 75.2317 99.961 75.327C86.0866 75.35 73.0958 70.0105 63.311 60.2257C53.5715 50.4862 48.209 37.5336 48.209 23.7545V12.8625H39.9055ZM272.362 252.865C272.362 243.291 275.989 235.742 279.5 228.441C282.807 221.56 285.93 215.06 285.93 207.036C285.93 183.22 276.965 170.537 270.492 170.537C256.295 170.537 247.355 179.108 236.326 203.297C219.907 239.315 203.575 257.578 187.782 257.578C178.282 257.578 170.776 251.82 165.47 240.46C128.042 249.034 122.259 273.933 121.644 285.401H190.836C190.903 285.399 190.971 285.399 191.038 285.401H199.553C199.671 285.401 199.778 285.334 199.809 285.244C204.44 271.234 214.187 255.665 226.548 242.528C231.038 237.756 246.576 222.187 257.995 222.187C258.664 222.186 259.327 222.322 259.942 222.586C260.557 222.85 261.112 223.237 261.573 223.723C265.436 227.794 266.167 237.107 266.167 252.865V285.401H272.362V252.865Z" fill="#FE928E"/>
<path d="M187.782 247.716C198.874 247.716 213.298 230.035 227.352 199.205C237.898 176.077 249.268 160.676 270.492 160.676C285.153 160.676 295.793 180.174 295.793 207.036C295.793 217.304 292.031 225.138 288.389 232.714C285.216 239.308 282.225 245.538 282.225 252.865V286.388C282.225 291.28 278.241 295.264 273.349 295.264H265.181C260.286 295.264 256.305 291.28 256.305 286.388V252.865C256.305 242.937 255.915 236.177 255.141 232.686C250.308 234.492 242.356 240.119 233.729 249.288C222.318 261.413 213.368 275.647 209.173 288.339C207.802 292.483 203.936 295.264 199.553 295.264H196.535C197.514 303.083 198.324 310.922 198.964 318.776C199.03 319.588 198.894 320.404 198.568 321.15C198.241 321.896 197.735 322.55 197.095 323.053C183.146 334.009 166.146 339.637 147.326 339.637C142.628 339.637 137.815 339.288 132.909 338.581C114.977 335.998 97.4612 329.304 80.5229 322.83M187.782 247.716C186.131 247.716 186.43 255.772 177.269 241.328M187.782 247.716L183.693 223.738C175.087 186.674 164.313 153.88 155.906 138.981C157.231 132.734 158.749 125.914 160.226 119.278M84.0444 313.617L83.995 313.598M84.0444 313.617L84.0685 313.626M84.0444 313.617C84.0524 313.62 84.0605 313.623 84.0685 313.626M84.0444 313.617C84.0279 313.611 84.0115 313.605 83.995 313.598M160.331 118.804C164.222 101.347 168.244 83.2939 169.323 73.1592C170.89 58.438 169.824 21.8024 169.459 10.9262C169.396 8.79693 168.503 6.77669 166.972 5.29608C165.44 3.81546 163.391 2.99158 161.261 3.00006H149.691C145.168 3.00006 141.49 6.68071 141.49 11.2036V23.0641C141.49 46.3664 122.844 65.387 99.9242 65.4646H99.7802C88.6337 65.4646 78.1625 61.1291 70.2831 53.2523C62.4082 45.3755 58.0707 34.9017 58.0707 23.7545V11.203C58.0707 6.68137 54.3901 3.00006 49.8666 3.00006H38.2993C36.1693 2.99192 34.1205 3.81595 32.5893 5.29654C31.0581 6.77712 30.1657 8.79716 30.1023 10.9262C29.8919 17.1921 29.4034 33.3782 29.4034 48.2698C29.4253 49.1466 29.5044 51.2246 29.6456 52.5221C30.7423 62.8086 35.4359 101.868 39.4071 119.687C40.9325 126.529 42.5039 133.584 43.8551 139.959C37.1723 152.128 29.1765 174.885 21.7416 202.983C13.2402 235.106 6.59624 270.107 3.03131 301.538C2.9484 302.271 3.03067 303.012 3.27205 303.709C3.51343 304.405 3.90779 305.039 4.42616 305.563C4.94453 306.087 5.57373 306.488 6.2675 306.737C6.96128 306.986 7.70201 307.076 8.43525 307.001C23.2026 305.489 39.3605 308.123 60.8342 315.546C67.3782 317.805 74.0447 320.353 80.4915 322.818M160.331 118.804L160.226 119.278M160.331 118.804C160.296 118.962 160.261 119.12 160.226 119.278M49.0355 117.543C45.1234 99.9935 40.4889 61.2083 39.454 51.4793C39.3251 50.2908 39.2748 48.8444 39.2658 48.2698C39.2658 34.6623 39.6767 19.9384 39.9055 12.8625H48.209V23.7545C48.209 37.5336 53.5715 50.4862 63.311 60.2257C73.0958 70.0105 86.0866 75.35 99.961 75.327C128.297 75.2317 151.353 51.7854 151.353 23.0641V12.8625H159.657C160.052 25.1931 160.949 58.6661 159.518 72.1138C158.496 81.6935 154.538 99.4695 150.706 116.659C149.347 122.759 147.953 129.026 146.694 134.897H120.481C120.338 134.891 120.195 134.891 120.052 134.897H81.039C80.8817 134.889 80.7242 134.889 80.5669 134.897H52.8568C51.7359 129.684 50.5051 124.15 49.2968 118.718M49.0355 117.543L49.2968 118.718M49.0355 117.543C49.1224 117.934 49.2096 118.325 49.2968 118.718M80.5229 322.83L80.4915 322.818M80.5229 322.83C80.5124 322.826 80.502 322.822 80.4915 322.818M177.269 241.328C176.208 239.816 175.142 237.945 174.106 235.632C172.41 231.851 168.257 229.751 164.222 230.634C144.266 235.013 129.63 244.09 120.717 257.607C113.31 268.843 111.916 280.318 111.744 286.156C111.674 288.578 112.558 290.861 114.235 292.59C115.91 294.313 118.162 295.264 120.576 295.264H186.595C187.508 302.453 188.28 309.659 188.909 316.879C170.138 330.478 148.987 330.93 134.317 328.819C117.48 326.393 100.496 319.903 84.0685 313.626M177.269 241.328L174.087 225.967C165.833 190.429 155.709 159.188 147.839 144.759H126.329C128.04 153.799 129.968 167.214 131.89 183.523C131.965 184.167 131.914 184.819 131.737 185.442C131.561 186.065 131.264 186.648 130.863 187.157C130.461 187.665 129.964 188.089 129.398 188.406C128.833 188.722 128.211 188.923 127.567 188.999C126.268 189.151 124.962 188.781 123.936 187.97C122.91 187.16 122.247 185.975 122.094 184.676C120.055 167.353 118.026 153.441 116.285 144.76H85.0491C83.2995 153.415 81.2599 167.384 79.2236 184.676C79.0822 185.875 78.5061 186.981 77.6044 187.783C76.7026 188.586 75.5378 189.03 74.3306 189.032C73.6339 189.033 72.945 188.886 72.3092 188.601C71.6734 188.316 71.1052 187.899 70.642 187.379C70.1788 186.858 69.831 186.246 69.6217 185.581C69.4124 184.917 69.3463 184.215 69.4276 183.523C71.3462 167.235 73.2851 153.774 75.0012 144.759H52.4689C39.7451 167.867 21.3281 233.77 13.5308 296.777C28.0983 296.288 43.9905 299.286 64.0572 306.223C70.7442 308.533 77.4788 311.108 83.995 313.598M279.5 228.441C275.989 235.742 272.362 243.291 272.362 252.865V285.401H266.167V252.865C266.167 237.107 265.436 227.794 261.573 223.723C261.112 223.237 260.557 222.85 259.942 222.586C259.327 222.322 258.664 222.186 257.995 222.187C246.576 222.187 231.038 237.756 226.548 242.528C214.187 255.665 204.44 271.234 199.809 285.244C199.778 285.334 199.671 285.401 199.553 285.401H191.038C190.971 285.399 190.903 285.399 190.836 285.401H121.644C122.259 273.933 128.042 249.034 165.47 240.46C170.776 251.82 178.282 257.578 187.782 257.578C203.575 257.578 219.907 239.315 236.326 203.297C247.355 179.108 256.295 170.537 270.492 170.537C276.965 170.537 285.93 183.22 285.93 207.036C285.93 215.06 282.807 221.56 279.5 228.441ZM299.808 89.2545C299.775 89.1697 299.739 89.0849 299.703 89.0027L285.057 54.5329C284.355 52.8751 283.18 51.4611 281.678 50.4676C280.177 49.4741 278.416 48.9451 276.615 48.9469H198.053C196.252 48.9451 194.49 49.4743 192.988 50.4683C191.486 51.4623 190.311 52.877 189.608 54.5356L174.965 89.0027C174.927 89.0846 174.894 89.1691 174.861 89.2536L174.86 89.2545C173.561 92.473 174.203 96.1996 176.514 98.7961L230.483 159.375C231.338 160.334 232.384 161.103 233.555 161.632C234.725 162.161 235.994 162.439 237.279 162.447H237.386C238.671 162.439 239.94 162.161 241.11 161.632C242.281 161.103 243.327 160.334 244.182 159.375L298.151 98.7961C300.465 96.199 301.107 92.4703 299.808 89.2545ZM198.508 58.8093H217.344L213.404 86.1032H186.913L198.508 58.8093ZM213.206 96.9439L226.135 139.668L187.202 95.9656H212.957C213.03 96.3049 213.111 96.631 213.206 96.9439ZM250.552 115.973C247.943 115.187 245.192 116.659 244.405 119.266L237.333 142.627L223.215 95.9656H251.454L250.29 99.8106C249.912 101.062 250.047 102.413 250.664 103.566C251.282 104.719 252.332 105.579 253.583 105.958C256.19 106.745 258.943 105.272 259.732 102.665L261.463 96.9433C261.558 96.6329 261.64 96.3042 261.712 95.9649H287.467L248.534 139.668L253.845 122.121C254.631 119.514 253.156 116.761 250.552 115.973ZM287.755 86.1032H261.263L257.324 58.8093H276.158L287.755 86.1032ZM227.309 58.8093H247.36L251.297 86.1032H223.369L227.309 58.8093Z" stroke="white" stroke-width="6"/>
</svg>
