<svg width="512" height="512" viewBox="0 0 512 512" fill="none" xmlns="http://www.w3.org/2000/svg">
<circle cx="256" cy="256" r="256" fill="white"/>
<path fill-rule="evenodd" clip-rule="evenodd" d="M303.273 414.62C303.91 416.099 304.941 417.375 306.253 418.31C307.565 419.244 309.108 419.801 310.715 419.921C312.322 420.04 313.93 419.718 315.366 418.987C316.802 418.257 318.011 417.148 318.86 415.779L340.216 381.394L379.894 389.513C381.472 389.835 383.109 389.72 384.626 389.179C386.143 388.637 387.482 387.691 388.499 386.443C389.516 385.195 390.171 383.692 390.393 382.098C390.615 380.504 390.396 378.88 389.76 377.401L360.292 309.043C361.193 308.661 362.115 308.268 363.087 307.853C378.283 301.351 387.174 285.963 385.213 269.564C384.848 266.518 384.508 263.807 384.202 261.374C382.978 251.615 382.362 246.717 383.023 242.974C383.684 239.231 385.939 234.837 390.431 226.085C391.551 223.902 392.799 221.473 394.184 218.734C401.642 203.993 398.553 186.495 386.5 175.194C384.262 173.095 382.257 171.238 380.458 169.569C373.24 162.88 369.618 159.522 367.717 156.231C365.814 152.939 364.716 148.126 362.526 138.538C361.98 136.147 361.372 133.483 360.671 130.495C356.901 114.414 343.278 102.993 326.773 102.076C323.708 101.906 320.977 101.77 318.526 101.648C308.693 101.159 303.758 100.914 300.184 99.6136C296.61 98.3135 292.672 95.3324 284.825 89.3922C282.632 87.729 280.434 86.0726 278.231 84.4229C264.997 74.5262 247.216 74.5251 233.981 84.4229C231.778 86.0726 229.58 87.729 227.387 89.3922C219.54 95.3324 215.602 98.3135 212.028 99.6136C208.454 100.914 203.518 101.159 193.686 101.648C191.234 101.77 188.505 101.906 185.439 102.076C168.934 102.993 155.31 114.415 151.541 130.495C150.84 133.483 150.232 136.146 149.686 138.538C147.496 148.126 146.398 152.94 144.495 156.231C142.593 159.522 138.971 162.88 131.754 169.569C129.954 171.238 127.95 173.095 125.712 175.194C113.66 186.496 110.57 203.995 118.027 218.735C119.412 221.472 120.66 223.901 121.779 226.083C126.271 234.836 128.526 239.23 129.188 242.973C129.849 246.714 129.233 251.613 128.009 261.371C127.703 263.805 127.363 266.517 126.998 269.564C125.037 285.963 133.928 301.351 149.124 307.853C151.947 309.06 154.465 310.121 156.727 311.074L158.704 311.907L122.557 389.478C121.877 390.937 121.611 392.554 121.786 394.154C121.961 395.754 122.572 397.276 123.552 398.553C124.531 399.831 125.843 400.817 127.344 401.401C128.846 401.986 130.478 402.148 132.065 401.87L171.965 394.905L192.315 429.893C193.124 431.285 194.3 432.429 195.714 433.2C197.128 433.971 198.726 434.34 200.336 434.267C201.945 434.194 203.503 433.682 204.842 432.786C206.18 431.89 207.247 430.645 207.927 429.186L243.9 351.984C249.671 350.251 253.17 349.378 256.108 349.378C259.912 349.378 264.634 350.833 274.041 353.734C275.13 354.07 276.282 354.425 277.491 354.795L303.273 414.62ZM337.734 362.906C335.968 362.546 334.134 362.734 332.478 363.446C330.823 364.159 329.426 365.361 328.475 366.89L312.784 392.155L297.804 357.402C308.086 355.977 317.497 350.22 323.513 341.028C325.193 338.46 326.676 336.166 328.008 334.105C328.01 334.101 328.013 334.098 328.015 334.094C333.351 325.838 336.029 321.694 338.942 319.251C340.25 318.154 341.893 317.164 344.121 316.059L366.886 368.871L337.734 362.906ZM199.065 406.455L184.115 380.748C183.209 379.191 181.847 377.949 180.214 377.189C178.58 376.43 176.752 376.188 174.977 376.498L145.662 381.614L174.285 320.191C176.842 322.73 179.484 326.814 184.196 334.106C185.688 336.418 187.187 338.725 188.692 341.028C196.129 352.392 208.748 358.514 221.794 357.68L199.065 406.455ZM256.102 331.755C250.103 331.755 244.103 333.472 232.97 336.904C230.374 337.707 227.774 338.502 225.173 339.29C216.78 341.822 208.248 338.724 203.445 331.388C201.8 328.877 200.348 326.629 199.043 324.61C199.031 324.59 199.018 324.571 199.006 324.551C186.365 304.994 185.04 303.884 163.567 294.843C161.334 293.903 158.846 292.855 156.058 291.661C147.994 288.21 143.456 280.357 144.497 271.653C144.857 268.645 145.194 265.966 145.495 263.563C148.394 240.465 148.094 238.763 137.46 218.045C136.218 215.63 134.983 213.211 133.756 210.788C129.798 202.965 131.375 194.035 137.772 188.037C139.9 186.041 141.813 184.267 143.539 182.668C143.606 182.605 143.673 182.543 143.739 182.482C160.823 166.648 161.687 165.152 166.869 142.456C167.408 140.093 168.009 137.463 168.701 134.512C170.7 125.978 177.654 120.149 186.413 119.662C189.441 119.494 192.137 119.36 194.559 119.24C217.831 118.082 219.458 117.49 238.03 103.431C238.05 103.416 238.071 103.4 238.092 103.384C240.009 101.933 242.14 100.32 244.541 98.5238C251.565 93.2716 260.64 93.2716 267.664 98.5238C270.065 100.32 272.197 101.933 274.113 103.384C274.134 103.4 274.155 103.416 274.176 103.431C292.748 117.49 294.374 118.082 317.646 119.24C320.067 119.36 322.764 119.494 325.792 119.662C334.552 120.149 341.504 125.978 343.505 134.512C344.197 137.462 344.797 140.092 345.336 142.455C350.519 165.151 351.383 166.648 368.466 182.481C368.532 182.542 368.599 182.604 368.666 182.665C370.391 184.265 372.305 186.04 374.434 188.035C380.831 194.034 382.405 202.964 378.449 210.787C377.221 213.211 375.986 215.631 374.742 218.047C364.111 238.763 363.81 240.465 366.71 263.565C366.74 263.807 366.771 264.051 366.802 264.298C367.079 266.51 367.384 268.947 367.707 271.652C368.748 280.355 364.21 288.21 356.146 291.66C353.433 292.821 351.004 293.844 348.817 294.766C348.757 294.791 348.697 294.816 348.637 294.842C327.165 303.883 325.841 304.994 313.2 324.55C311.727 326.834 310.247 329.113 308.76 331.388C303.96 338.723 295.434 341.826 287.033 339.29C284.334 338.475 281.915 337.73 279.727 337.056C279.562 337.005 279.398 336.954 279.235 336.904C268.1 333.472 262.1 331.755 256.102 331.755ZM343.582 217.374C343.582 169.179 304.339 129.97 256.102 129.97C207.866 129.97 168.622 169.179 168.622 217.374C168.622 265.57 207.866 304.78 256.102 304.78C304.338 304.78 343.582 265.571 343.582 217.374ZM256.101 287.166C217.585 287.166 186.25 255.858 186.25 217.374C186.25 178.892 217.585 147.583 256.101 147.583C294.616 147.583 325.952 178.892 325.952 217.374C325.953 255.858 294.616 287.166 256.101 287.166ZM304.512 196.609L244.321 251.186C242.701 252.659 240.589 253.474 238.399 253.471C237.241 253.473 236.094 253.246 235.024 252.803C233.955 252.36 232.983 251.711 232.165 250.892L207.383 226.132C206.556 225.316 205.899 224.344 205.45 223.274C205 222.203 204.767 221.054 204.764 219.893C204.76 218.732 204.986 217.582 205.43 216.509C205.873 215.435 206.524 214.46 207.346 213.639C208.167 212.818 209.143 212.168 210.218 211.725C211.292 211.283 212.443 211.057 213.605 211.06C214.767 211.064 215.917 211.297 216.989 211.746C218.06 212.195 219.032 212.852 219.849 213.678L238.693 232.506L292.665 183.567C294.402 182.033 296.673 181.244 298.987 181.371C301.302 181.498 303.473 182.531 305.031 184.246C306.589 185.961 307.408 188.22 307.311 190.534C307.213 192.848 306.208 195.03 304.512 196.609Z" fill="#FE928E"/>
<path fill-rule="evenodd" clip-rule="evenodd" d="M256.101 287.166C217.585 287.166 186.25 255.858 186.25 217.374C186.25 178.892 217.585 147.583 256.101 147.583C294.616 147.583 325.952 178.892 325.952 217.374C325.953 255.858 294.616 287.166 256.101 287.166ZM244.321 251.186L304.512 196.609C306.208 195.03 307.213 192.848 307.311 190.534C307.408 188.22 306.589 185.961 305.031 184.246C303.473 182.531 301.302 181.498 298.987 181.371C296.673 181.244 294.402 182.033 292.665 183.567L238.693 232.506L219.849 213.678C219.032 212.852 218.06 212.195 216.989 211.746C215.917 211.297 214.767 211.064 213.605 211.06C212.443 211.057 211.292 211.283 210.218 211.725C209.143 212.168 208.167 212.818 207.346 213.639C206.524 214.46 205.873 215.435 205.43 216.509C204.986 217.582 204.76 218.732 204.764 219.893C204.767 221.054 205 222.203 205.45 223.274C205.899 224.344 206.556 225.316 207.383 226.132L232.165 250.892C232.983 251.711 233.955 252.36 235.024 252.803C236.094 253.246 237.241 253.473 238.399 253.471C240.589 253.474 242.701 252.659 244.321 251.186Z" fill="#FE928E"/>
<path fill-rule="evenodd" clip-rule="evenodd" d="M256.102 331.755C250.103 331.755 244.103 333.472 232.97 336.904C230.374 337.707 227.774 338.502 225.173 339.29C216.78 341.822 208.248 338.724 203.445 331.388C201.8 328.877 200.348 326.629 199.043 324.61L199.006 324.551C186.365 304.994 185.04 303.884 163.567 294.843C161.334 293.903 158.846 292.855 156.058 291.661C147.994 288.21 143.456 280.357 144.497 271.653C144.857 268.645 145.194 265.966 145.495 263.563C148.394 240.465 148.094 238.763 137.46 218.045C136.218 215.63 134.983 213.211 133.756 210.788C129.798 202.965 131.375 194.035 137.772 188.037C139.9 186.041 141.813 184.267 143.539 182.668L143.739 182.482C160.823 166.648 161.687 165.152 166.869 142.456C167.408 140.093 168.009 137.463 168.701 134.512C170.7 125.978 177.654 120.149 186.413 119.662C189.441 119.494 192.137 119.36 194.559 119.24C217.831 118.082 219.458 117.49 238.03 103.431L238.092 103.384C240.009 101.933 242.14 100.32 244.541 98.5238C251.565 93.2716 260.64 93.2716 267.664 98.5238C270.065 100.32 272.197 101.933 274.113 103.384L274.176 103.431C292.748 117.49 294.374 118.082 317.646 119.24C320.067 119.36 322.764 119.494 325.792 119.662C334.552 120.149 341.504 125.978 343.505 134.512C344.197 137.462 344.797 140.092 345.336 142.455C350.519 165.151 351.383 166.648 368.466 182.481L368.666 182.665C370.391 184.265 372.305 186.04 374.434 188.035C380.831 194.034 382.405 202.964 378.449 210.787C377.221 213.211 375.986 215.631 374.742 218.047C364.111 238.763 363.81 240.465 366.71 263.565L366.802 264.298C367.079 266.51 367.384 268.947 367.707 271.652C368.748 280.355 364.21 288.21 356.146 291.66C353.433 292.821 351.004 293.844 348.817 294.766L348.637 294.842C327.165 303.883 325.841 304.994 313.2 324.55C311.727 326.834 310.247 329.113 308.76 331.388C303.96 338.723 295.434 341.826 287.033 339.29C284.334 338.475 281.915 337.73 279.727 337.056L279.235 336.904C268.1 333.472 262.1 331.755 256.102 331.755ZM256.102 129.97C304.339 129.97 343.582 169.179 343.582 217.374C343.582 265.571 304.338 304.78 256.102 304.78C207.866 304.78 168.622 265.57 168.622 217.374C168.622 169.179 207.866 129.97 256.102 129.97Z" fill="#FE928E"/>
<path d="M337.734 362.906C335.968 362.546 334.134 362.734 332.478 363.446C330.823 364.159 329.426 365.361 328.475 366.89L312.784 392.155L297.804 357.402C308.086 355.977 317.497 350.22 323.513 341.028C325.193 338.46 326.676 336.166 328.008 334.105L328.015 334.094C333.351 325.838 336.029 321.694 338.942 319.251C340.25 318.154 341.893 317.164 344.121 316.059L366.886 368.871L337.734 362.906Z" fill="#FE928E"/>
<path d="M199.065 406.455L184.115 380.748C183.209 379.191 181.847 377.949 180.214 377.189C178.58 376.43 176.752 376.188 174.977 376.498L145.662 381.614L174.285 320.191C176.842 322.73 179.484 326.814 184.196 334.106C185.688 336.418 187.187 338.725 188.692 341.028C196.129 352.392 208.748 358.514 221.794 357.68L199.065 406.455Z" fill="#FE928E"/>
<path d="M328.008 334.105C326.676 336.166 325.193 338.46 323.513 341.028C317.497 350.22 308.086 355.977 297.804 357.402L312.784 392.155L328.475 366.89C329.426 365.361 330.823 364.159 332.478 363.446C334.134 362.734 335.968 362.546 337.734 362.906L366.886 368.871L344.121 316.059C341.893 317.164 340.25 318.154 338.942 319.251C336.029 321.694 333.351 325.838 328.015 334.094M328.008 334.105L328.015 334.094M328.008 334.105C328.01 334.101 328.013 334.098 328.015 334.094M199.006 324.551C186.365 304.994 185.04 303.884 163.567 294.843C161.334 293.903 158.846 292.855 156.058 291.661C147.994 288.21 143.456 280.357 144.497 271.653C144.857 268.645 145.194 265.966 145.495 263.563C148.394 240.465 148.094 238.763 137.46 218.045C136.218 215.63 134.983 213.211 133.756 210.788C129.798 202.965 131.375 194.035 137.772 188.037C139.9 186.041 141.813 184.267 143.539 182.668M199.006 324.551L199.043 324.61M199.006 324.551C199.018 324.571 199.031 324.59 199.043 324.61M143.739 182.482C160.823 166.648 161.687 165.152 166.869 142.456C167.408 140.093 168.009 137.463 168.701 134.512C170.7 125.978 177.654 120.149 186.413 119.662C189.441 119.494 192.137 119.36 194.559 119.24C217.831 118.082 219.458 117.49 238.03 103.431M143.739 182.482L143.539 182.668M143.739 182.482C143.673 182.543 143.606 182.605 143.539 182.668M238.03 103.431L238.092 103.384M238.03 103.431C238.05 103.416 238.071 103.4 238.092 103.384M274.176 103.431C292.748 117.49 294.374 118.082 317.646 119.24C320.067 119.36 322.764 119.494 325.792 119.662C334.552 120.149 341.504 125.978 343.505 134.512C344.197 137.462 344.797 140.092 345.336 142.455C350.519 165.151 351.383 166.648 368.466 182.481M274.176 103.431L274.113 103.384M274.176 103.431C274.155 103.416 274.134 103.4 274.113 103.384M368.466 182.481L368.666 182.665M368.466 182.481C368.532 182.542 368.599 182.604 368.666 182.665M366.71 263.565C363.81 240.465 364.111 238.763 374.742 218.047C375.986 215.631 377.221 213.211 378.449 210.787C382.405 202.964 380.831 194.034 374.434 188.035C372.305 186.04 370.391 184.265 368.666 182.665M366.71 263.565L366.802 264.298M366.71 263.565C366.74 263.807 366.771 264.051 366.802 264.298M348.637 294.842C327.165 303.883 325.841 304.994 313.2 324.55C311.727 326.834 310.247 329.113 308.76 331.388C303.96 338.723 295.434 341.826 287.033 339.29C284.334 338.475 281.915 337.73 279.727 337.056M348.637 294.842L348.817 294.766M348.637 294.842C348.697 294.816 348.757 294.791 348.817 294.766M279.235 336.904C268.1 333.472 262.1 331.755 256.102 331.755C250.103 331.755 244.103 333.472 232.97 336.904C230.374 337.707 227.774 338.502 225.173 339.29C216.78 341.822 208.248 338.724 203.445 331.388C201.8 328.877 200.348 326.629 199.043 324.61M279.235 336.904L279.727 337.056M279.235 336.904C279.398 336.954 279.562 337.005 279.727 337.056M238.092 103.384C240.009 101.933 242.14 100.32 244.541 98.5238C251.565 93.2716 260.64 93.2716 267.664 98.5238C270.065 100.32 272.197 101.933 274.113 103.384M366.802 264.298C367.079 266.51 367.384 268.947 367.707 271.652C368.748 280.355 364.21 288.21 356.146 291.66C353.433 292.821 351.004 293.844 348.817 294.766M303.273 414.62C303.91 416.099 304.941 417.375 306.253 418.31C307.565 419.244 309.108 419.801 310.715 419.921C312.322 420.04 313.93 419.718 315.366 418.987C316.802 418.257 318.011 417.148 318.86 415.779L340.216 381.394L379.894 389.513C381.472 389.835 383.109 389.72 384.626 389.179C386.143 388.637 387.482 387.691 388.499 386.443C389.516 385.195 390.171 383.692 390.393 382.098C390.615 380.504 390.396 378.88 389.76 377.401L360.292 309.043C361.193 308.661 362.115 308.268 363.087 307.853C378.283 301.351 387.174 285.963 385.213 269.564C384.848 266.518 384.508 263.807 384.202 261.374C382.978 251.615 382.362 246.717 383.023 242.974C383.684 239.231 385.939 234.837 390.431 226.085C391.551 223.902 392.799 221.473 394.184 218.734C401.642 203.993 398.553 186.495 386.5 175.194C384.262 173.095 382.257 171.238 380.458 169.569C373.24 162.88 369.618 159.522 367.717 156.231C365.814 152.939 364.716 148.126 362.526 138.538C361.98 136.147 361.372 133.483 360.671 130.495C356.901 114.414 343.278 102.993 326.773 102.076C323.708 101.906 320.977 101.77 318.526 101.648C308.693 101.159 303.758 100.914 300.184 99.6136C296.61 98.3135 292.672 95.3324 284.825 89.3922C282.632 87.729 280.434 86.0726 278.231 84.4229C264.997 74.5262 247.216 74.5251 233.981 84.4229C231.778 86.0726 229.58 87.729 227.387 89.3922C219.54 95.3324 215.602 98.3135 212.028 99.6136C208.454 100.914 203.518 101.159 193.686 101.648C191.234 101.77 188.505 101.906 185.439 102.076C168.934 102.993 155.31 114.415 151.541 130.495C150.84 133.483 150.232 136.146 149.686 138.538C147.496 148.126 146.398 152.94 144.495 156.231C142.593 159.522 138.971 162.88 131.754 169.569C129.954 171.238 127.95 173.095 125.712 175.194C113.66 186.496 110.57 203.995 118.027 218.735C119.412 221.472 120.66 223.901 121.779 226.083C126.271 234.836 128.526 239.23 129.188 242.973C129.849 246.714 129.233 251.613 128.009 261.371C127.703 263.805 127.363 266.517 126.998 269.564C125.037 285.963 133.928 301.351 149.124 307.853C151.947 309.06 154.465 310.121 156.727 311.074L158.704 311.907L122.557 389.478C121.877 390.937 121.611 392.554 121.786 394.154C121.961 395.754 122.572 397.276 123.552 398.553C124.531 399.831 125.843 400.817 127.344 401.401C128.846 401.986 130.478 402.148 132.065 401.87L171.965 394.905L192.315 429.893C193.124 431.285 194.3 432.429 195.714 433.2C197.128 433.971 198.726 434.34 200.336 434.267C201.945 434.194 203.503 433.682 204.842 432.786C206.18 431.89 207.247 430.645 207.927 429.186L243.9 351.984C249.671 350.251 253.17 349.378 256.108 349.378C259.912 349.378 264.634 350.833 274.041 353.734C275.13 354.07 276.282 354.425 277.491 354.795L303.273 414.62ZM199.065 406.455L184.115 380.748C183.209 379.191 181.847 377.949 180.214 377.189C178.58 376.43 176.752 376.188 174.977 376.498L145.662 381.614L174.285 320.191C176.842 322.73 179.484 326.814 184.196 334.106C185.688 336.418 187.187 338.725 188.692 341.028C196.129 352.392 208.748 358.514 221.794 357.68L199.065 406.455ZM343.582 217.374C343.582 169.179 304.339 129.97 256.102 129.97C207.866 129.97 168.622 169.179 168.622 217.374C168.622 265.57 207.866 304.78 256.102 304.78C304.338 304.78 343.582 265.571 343.582 217.374ZM256.101 287.166C217.585 287.166 186.25 255.858 186.25 217.374C186.25 178.892 217.585 147.583 256.101 147.583C294.616 147.583 325.952 178.892 325.952 217.374C325.953 255.858 294.616 287.166 256.101 287.166ZM304.512 196.609L244.321 251.186C242.701 252.659 240.589 253.474 238.399 253.471C237.241 253.473 236.094 253.246 235.024 252.803C233.955 252.36 232.983 251.711 232.165 250.892L207.383 226.132C206.556 225.316 205.899 224.344 205.45 223.274C205 222.203 204.767 221.054 204.764 219.893C204.76 218.732 204.986 217.582 205.43 216.509C205.873 215.435 206.524 214.46 207.346 213.639C208.167 212.818 209.143 212.168 210.218 211.725C211.292 211.283 212.443 211.057 213.605 211.06C214.767 211.064 215.917 211.297 216.989 211.746C218.06 212.195 219.032 212.852 219.849 213.678L238.693 232.506L292.665 183.567C294.402 182.033 296.673 181.244 298.987 181.371C301.302 181.498 303.473 182.531 305.031 184.246C306.589 185.961 307.408 188.22 307.311 190.534C307.213 192.848 306.208 195.03 304.512 196.609Z" stroke="white" stroke-width="6"/>
</svg>
