<?xml version="1.0" standalone="no"?>
<!DOCTYPE svg PUBLIC "-//W3C//DTD SVG 20010904//EN"
 "http://www.w3.org/TR/2001/REC-SVG-20010904/DTD/svg10.dtd">
<svg version="1.0" xmlns="http://www.w3.org/2000/svg"
 width="125.000000pt" height="125.000000pt" viewBox="0 0 125.000000 125.000000"
 preserveAspectRatio="xMidYMid meet">
<metadata>
Created by potrace 1.14, written by Peter Selinger 2001-2017
</metadata>
<g transform="translate(0.000000,125.000000) scale(0.100000,-0.100000)"
fill="#000000" stroke="none">
<path d="M524 1153 c-28 -7 -60 -25 -78 -43 -29 -29 -31 -35 -34 -120 -2 -50
-6 -90 -8 -90 -2 0 -29 10 -60 21 -142 54 -191 19 -259 -187 l-27 -81 21 -47
c18 -42 27 -50 88 -78 37 -16 70 -32 71 -33 2 -2 -15 -30 -37 -62 -80 -112
-66 -166 65 -262 76 -56 118 -80 150 -86 26 -6 92 45 139 107 27 37 55 67 60
67 6 0 46 -33 89 -75 44 -41 90 -77 103 -80 12 -4 23 -10 23 -14 0 -10 13 -8
61 8 37 13 139 111 184 178 42 62 30 123 -36 184 l-41 37 57 23 c76 31 112 63
125 110 9 34 6 50 -31 149 -62 167 -109 196 -239 147 l-70 -26 0 76 c0 100
-30 156 -91 169 -16 4 -27 10 -25 14 7 11 -38 7 -46 -4 -5 -7 -8 -7 -8 0 0 14
-90 13 -146 -2z m227 -92 c16 -20 19 -41 19 -142 0 -65 3 -119 8 -119 4 0 54
19 111 42 128 51 140 47 178 -52 14 -36 29 -74 33 -85 28 -69 16 -83 -118
-135 -59 -23 -109 -44 -111 -46 -2 -2 6 -13 19 -24 71 -61 129 -122 135 -140
8 -27 -10 -54 -90 -137 -85 -87 -68 -94 -298 120 -17 15 -33 27 -36 27 -3 0
-35 -42 -71 -92 -71 -99 -97 -122 -126 -112 -24 9 -155 103 -171 124 -22 27
-14 46 52 139 36 49 65 94 65 99 0 5 -41 24 -90 42 -50 17 -97 38 -105 47 -22
22 -18 58 18 153 44 115 52 118 174 74 52 -19 104 -39 114 -45 18 -9 19 -4 19
111 0 125 7 156 40 168 10 4 62 7 116 6 88 0 99 -2 115 -23z"/>
<path d="M553 868 c-23 -11 -33 -35 -33 -81 0 -22 -4 -27 -17 -23 -79 23 -101
11 -131 -69 -24 -63 -15 -98 31 -116 18 -7 34 -14 36 -15 2 -2 -6 -15 -18 -30
-21 -27 -27 -69 -13 -90 16 -24 96 -74 119 -74 24 0 46 18 76 60 l16 23 45
-41 c61 -56 86 -55 143 4 49 52 55 87 22 123 -18 19 -19 25 -8 32 8 5 19 9 25
9 19 0 44 36 44 62 0 39 -36 115 -60 128 -20 11 -45 9 -84 -6 -13 -5 -16 1
-16 33 0 60 -27 83 -98 82 -31 0 -67 -5 -79 -11z m134 -32 c3 -3 6 -32 6 -65
1 -34 4 -61 8 -61 3 0 23 7 42 15 61 25 75 20 98 -32 25 -59 19 -70 -50 -96
l-53 -20 41 -38 c23 -21 41 -43 41 -48 0 -6 -18 -29 -40 -51 -46 -46 -46 -46
-117 21 l-49 46 -34 -48 c-19 -27 -41 -51 -49 -54 -13 -5 -101 59 -101 74 0 4
13 25 30 47 16 21 30 44 30 50 0 6 -17 16 -39 22 -59 18 -66 33 -45 88 10 25
24 48 32 52 8 3 35 -2 61 -12 25 -9 49 -16 53 -16 3 0 6 19 6 43 -2 76 1 85
25 89 28 5 98 0 104 -6z"/>
<path d="M580 682 c0 -5 6 -15 14 -22 8 -6 12 -18 9 -26 -5 -13 -8 -12 -24 2
-11 10 -22 14 -27 10 -4 -4 1 -13 10 -20 16 -12 16 -14 1 -29 -23 -22 -8 -35
16 -13 16 14 19 15 24 2 3 -8 -1 -20 -8 -26 -8 -7 -12 -16 -9 -21 3 -5 12 -2
20 6 13 13 18 13 40 -1 28 -19 32 -9 7 18 -21 23 -9 36 18 19 26 -15 37 -7 19
14 -10 12 -10 19 -2 27 7 7 12 19 12 27 0 11 -6 9 -24 -8 -18 -17 -25 -19 -29
-9 -2 7 2 20 10 30 8 9 10 18 5 22 -5 3 -15 -1 -22 -9 -10 -12 -15 -12 -36 2
-13 8 -24 11 -24 5z m55 -82 c-5 -8 -11 -8 -17 -2 -6 6 -7 16 -3 22 5 8 11 8
17 2 6 -6 7 -16 3 -22z"/>
</g>
</svg>
