<svg width="512" height="512" viewBox="0 0 512 512" fill="none" xmlns="http://www.w3.org/2000/svg">
<circle cx="256" cy="256" r="256" fill="white"/>
<path d="M211.705 87.7962C211.705 85.1473 209.479 83 206.734 83C203.989 83 201.764 85.1473 201.764 87.7962V150.095C196.793 161.269 191.823 175.658 191.823 188.517C191.823 194.327 193.962 199.107 196.258 204.236C199.04 210.453 202.053 217.184 201.764 226.886C201.238 244.491 195.098 262.823 189.133 280.632C186.52 288.432 183.941 296.132 181.882 303.626C174.946 328.87 171.073 353.465 167.378 376.927C165.645 387.932 163.952 398.687 162 409.142C162 409.142 192.3 428.327 255.266 428.327C318.242 428.327 350.878 409.142 350.878 409.142C348.926 398.687 347.233 387.932 345.5 376.929L345.5 376.927C341.806 353.465 337.933 328.87 330.996 303.626C328.937 296.132 326.358 288.432 323.746 280.632C317.78 262.823 311.64 244.491 311.114 226.886C310.826 217.184 313.838 210.453 316.621 204.236C318.916 199.107 321.055 194.327 321.055 188.517C321.055 175.658 316.085 161.269 311.114 150.096V87.7962C311.114 85.1473 308.889 83 306.144 83C303.399 83 301.173 85.1473 301.173 87.7962V130.962C301.173 176.421 256.439 178.924 256.439 178.924C256.439 178.924 211.747 176.931 211.705 131.027V87.7962Z" fill="#FE928E"/>
</svg>
