<svg width="512" height="512" viewBox="0 0 512 512" fill="none" xmlns="http://www.w3.org/2000/svg">
<circle cx="256" cy="256" r="256" fill="white"/>
<path fill-rule="evenodd" clip-rule="evenodd" d="M223.773 84.4836C239.686 79.7078 254.213 87.6958 255.614 91.0871C256.705 93.7274 256.586 94.6684 256.481 95.5106C256.45 95.7502 256.421 95.9818 256.421 96.2421C256.421 96.583 256.371 98.8017 256.301 101.953C256.127 109.67 255.828 122.981 255.828 127.99C255.828 135.045 252.901 139.126 252.901 139.126C253.428 140.299 253.858 141.355 254.158 142.243C254.266 142.563 254.601 142.946 255.04 143.45C255.794 144.315 256.858 145.533 257.609 147.392C257.802 147.715 258.302 148.501 258.758 149.053C258.893 149.22 259.023 149.382 259.151 149.54C260.444 151.146 261.411 152.347 263.545 154.447C268.229 159.057 275.417 166.206 281.946 174.437C289.594 185.003 306.787 210.987 314.001 222.059C317.321 226.281 324.699 237.826 326.466 241.46C326.528 241.572 326.588 241.683 326.648 241.791C329.281 246.581 330.328 248.487 330.026 252.673C329.871 254.825 328.988 257.688 327.735 260.934C326.476 264.195 324.818 267.902 323.075 271.758L322.552 272.915C319.204 280.318 315.659 288.153 313.981 294.522C312.636 299.629 309.523 308.82 306.045 319.091L306.044 319.092L306.042 319.098C304.899 322.474 303.716 325.965 302.544 329.467C297.788 343.67 293.208 358.02 292.03 365.603C289.661 380.859 288.476 400.23 288.476 408.432C288.476 411.533 289.869 413.939 291.642 415.705C293.424 417.479 295.566 418.58 296.974 419.045L297.647 419.267L297.307 419.884C296.692 421.001 295.508 422.773 293.933 424.508C292.362 426.239 290.367 427.971 288.123 428.959C286.595 429.632 284.791 429.481 283.013 428.836C281.228 428.189 279.401 427.021 277.763 425.55C274.645 422.749 273.714 420.398 272.077 416.264C272.004 416.081 271.93 415.895 271.855 415.705C270.905 413.997 270.205 410.595 269.974 409.107C269.914 408.984 269.829 408.53 269.743 408.067C269.651 407.579 269.558 407.081 269.491 406.949L266.033 401.089C265.69 400.561 265.338 400.031 264.98 399.498C263.058 396.643 260.95 393.749 258.946 391.011L258.552 390.472C256.697 387.938 254.947 385.548 253.553 383.477C253.391 383.237 253.203 382.99 253.003 382.728C251.952 381.351 250.58 379.554 251.079 376.096C251.497 373.198 253.051 371.935 255.329 370.085C256.286 369.308 257.37 368.427 258.552 367.277C265.675 361.398 271.855 351.991 271.855 346.112C271.855 344.648 271.849 343.267 271.843 341.948C271.767 324.965 271.737 318.283 285.508 277.912C288.357 270.857 290.211 265.557 290.781 263.788C291.1 259.467 289.72 255.183 287.338 251.072C282.562 242.83 273.863 235.456 267.324 230.157C263.489 227.049 257.968 222.423 252.081 217.438L251.101 216.608C247.257 213.349 243.29 209.967 239.561 206.777C234.663 202.587 230.174 198.728 226.908 195.917C225.276 194.511 223.949 193.368 223.031 192.575L221.682 191.411L209.272 186.728L209.232 186.706C204.318 183.924 197.041 178.256 191.107 170.258C185.169 162.255 180.553 151.887 181.035 139.726C181.516 127.561 187.332 116.616 194.356 107.899C199.846 101.085 209.527 92.1266 211.308 90.9508C211.785 90.6357 212.177 90.3629 212.541 90.1096C213.534 89.4177 214.318 88.8719 216.056 88.0112C216.712 87.6868 217.294 87.3624 217.877 87.038C219.407 86.1865 220.936 85.3351 223.773 84.4836Z" fill="#FE928E"/>
<path d="M239.207 412.548C248.383 412.548 254.432 413.134 258.695 413.862C261.499 414.476 268.056 415.705 271.855 415.705C270.905 413.997 270.205 410.595 269.974 409.107C269.914 408.984 269.829 408.53 269.743 408.067C269.651 407.579 269.558 407.081 269.491 406.949C269.491 406.949 267.762 404.019 262.357 401.965C256.953 399.911 257.513 400.603 252.232 398.908C249.419 398.006 246.679 396.959 244.335 395.775C242.001 394.596 240.014 393.259 238.751 391.759C235.644 388.066 234.903 383.184 234.903 377.933C234.903 375.349 235.084 372.644 235.266 369.916L235.276 369.765C235.461 366.978 235.645 364.168 235.645 361.398C235.645 352.454 236.437 311.016 236.833 291.423L236.834 291.36L236.849 291.298C238.826 283.073 243.132 263.115 244.552 249.045C245.98 234.905 249.505 221.554 251.101 216.608C247.257 213.349 243.29 209.967 239.561 206.777C234.663 202.587 230.174 198.728 226.908 195.917C225.276 194.511 223.949 193.368 223.031 192.575L221.682 191.411L209.272 186.728L209.232 186.706L208.932 187.329C210.119 203.789 212.495 241.789 212.495 262.038L212.45 262.287C212.45 272.929 210.041 283.424 208.842 293.604L208.841 293.607C208.621 295.478 208.403 297.33 208.195 299.159C206.861 310.903 205.955 321.725 207.758 330.357C211.306 347.338 211.308 363.74 211.308 381.975V412.548H239.207Z" fill="#FE928E"/>
</svg>
